<?xml version="1.0" standalone="no"?>
<!DOCTYPE svg PUBLIC "-//W3C//DTD SVG 20010904//EN"
 "http://www.w3.org/TR/2001/REC-SVG-20010904/DTD/svg10.dtd">
<svg version="1.0" xmlns="http://www.w3.org/2000/svg"
 width="1024.000000pt" height="1024.000000pt" viewBox="0 0 1024.000000 1024.000000"
 preserveAspectRatio="xMidYMid meet">
<metadata>
Created by potrace 1.16, written by Peter Selinger 2001-2019
</metadata>
<g transform="translate(0.000000,1024.000000) scale(0.100000,-0.100000)"
fill="#000000" stroke="none">
<path d="M5746 8561 c-10 -15 -246 -25 -561 -24 -331 1 -442 -9 -715 -66 -80
-16 -203 -42 -275 -55 -334 -66 -479 -105 -745 -204 -245 -91 -533 -250 -696
-386 -18 -14 -35 -26 -39 -26 -13 0 -131 -128 -166 -181 -59 -89 -68 -106 -89
-161 -41 -110 -77 -380 -95 -718 -3 -58 -8 -127 -10 -155 -2 -27 -7 -113 -10
-190 -3 -77 -8 -165 -10 -195 -2 -30 -7 -102 -10 -160 -3 -58 -8 -123 -10
-145 -3 -22 -7 -96 -10 -165 -3 -69 -7 -165 -10 -215 -3 -49 -7 -142 -10 -205
-2 -63 -7 -173 -10 -245 -3 -71 -10 -197 -15 -280 -18 -291 -37 -629 -55
-1000 -18 -346 -22 -398 -36 -480 -17 -94 -15 -267 4 -415 10 -74 22 -178 28
-230 5 -52 21 -169 34 -260 32 -212 41 -273 65 -452 11 -81 23 -154 26 -163 6
-14 -4 -15 -87 -9 -106 7 -191 18 -264 34 -103 22 -142 23 -199 5 -72 -23
-110 -65 -125 -137 -13 -63 -1 -140 28 -174 46 -57 219 -99 486 -119 206 -15
419 -20 1420 -30 l610 -7 176 27 177 26 2178 2 2179 2 111 36 c133 44 157 58
184 113 37 78 17 175 -46 225 -32 26 -107 48 -189 56 -33 4 -85 10 -115 15
-63 10 -149 17 -300 25 -125 6 -240 16 -240 20 0 2 5 16 11 32 77 197 192 556
248 779 31 124 73 431 67 489 -11 93 -25 368 -46 890 -9 228 -33 664 -45 840
-7 105 -14 234 -25 450 -5 116 -12 244 -15 285 -2 41 -7 138 -10 215 -3 77 -8
156 -10 175 -2 19 -7 73 -10 120 -3 47 -8 112 -10 145 -4 62 -11 186 -20 385
-10 190 -34 510 -46 590 -25 179 -73 309 -163 444 -62 92 -58 88 -193 216
-104 99 -236 186 -384 253 -107 49 -358 124 -495 147 -256 45 -468 80 -513 86
-25 3 -127 19 -226 35 -206 33 -397 56 -538 66 -62 4 -104 11 -112 20 -16 15
-22 16 -29 4z m319 -434 c88 -9 264 -32 390 -51 446 -70 731 -118 810 -136
163 -38 313 -103 423 -184 34 -25 64 -46 67 -46 2 0 26 -23 52 -51 109 -116
189 -272 218 -424 17 -91 46 -487 80 -1110 8 -148 19 -340 25 -425 5 -85 12
-213 15 -285 3 -71 7 -164 10 -205 3 -41 7 -122 10 -180 2 -58 7 -145 10 -195
2 -49 7 -144 10 -210 3 -66 10 -208 15 -315 5 -107 12 -249 15 -315 6 -115 9
-177 36 -640 11 -186 10 -221 -4 -306 -10 -53 -17 -113 -17 -134 0 -86 -85
-421 -136 -539 -15 -32 -53 -131 -85 -219 -55 -150 -113 -267 -131 -267 -4 0
-26 -16 -48 -36 -22 -20 -52 -38 -67 -40 -108 -16 -292 -29 -309 -23 -12 4
-25 5 -28 1 -12 -11 -2603 -11 -2701 0 -146 18 -167 18 -236 -3 -36 -10 -90
-24 -120 -30 -96 -19 -1023 -8 -1244 15 -184 19 -235 38 -332 128 -34 32 -61
48 -78 48 -14 0 -27 6 -29 12 -16 53 -77 407 -79 456 -1 33 -5 58 -8 56 -4 -2
-10 29 -13 69 -4 39 -9 86 -11 102 -3 17 -11 93 -20 170 -9 77 -18 153 -20
168 -2 15 0 83 5 150 5 67 12 185 15 262 4 77 9 142 10 145 2 3 6 60 10 125 3
66 10 194 15 285 5 91 12 230 15 310 3 80 8 172 10 205 9 133 15 235 20 335 3
58 8 121 10 141 2 19 6 100 10 180 4 79 9 147 11 150 2 3 4 57 4 120 1 63 5
175 10 249 17 254 20 306 35 605 8 165 19 354 25 420 5 66 12 181 15 255 11
223 21 293 57 385 26 65 95 161 148 205 83 67 96 77 170 127 244 165 714 325
1180 403 36 6 121 22 190 35 249 49 440 66 815 74 308 7 507 1 750 -22z"/>
<path d="M4384 7716 c-67 -29 -90 -90 -99 -264 -3 -53 -10 -149 -15 -212 -24
-290 -6 -346 116 -369 89 -17 172 33 193 117 5 20 12 83 16 140 4 65 13 118
25 146 27 64 40 66 40 7 0 -70 32 -147 86 -209 38 -43 67 -63 159 -108 87 -42
123 -54 159 -54 83 0 126 48 126 142 0 74 -31 124 -99 163 -66 37 -91 78 -132
210 -49 157 -82 206 -161 239 -52 22 -98 20 -150 -8 l-44 -23 -23 34 c-37 58
-126 80 -197 49z"/>
<path d="M6570 7720 c-45 -11 -82 -54 -110 -126 -22 -58 -22 -63 -11 -239 27
-429 48 -485 184 -485 60 0 118 29 151 73 24 32 25 57 7 247 -6 69 -12 193
-12 276 0 165 -9 199 -60 237 -31 22 -98 30 -149 17z"/>
<path d="M6006 7705 c-62 -17 -115 -59 -144 -116 -26 -48 -25 -34 -3 -308 9
-102 14 -123 47 -190 49 -99 156 -208 229 -234 78 -27 138 -23 177 12 32 29
33 31 32 113 0 112 -17 145 -95 188 l-60 34 3 86 c3 82 4 85 28 88 61 9 74 58
45 180 -20 84 -39 118 -76 137 -41 22 -123 26 -183 10z"/>
<path d="M7033 7690 c-55 -12 -80 -36 -98 -90 -20 -61 -17 -111 17 -240 32
-123 44 -144 118 -216 109 -105 175 -134 255 -110 26 8 44 11 39 6 -12 -12
-109 -60 -121 -60 -16 0 -61 -54 -77 -92 -22 -52 -20 -116 4 -156 27 -43 97
-75 145 -66 49 9 208 108 317 199 86 70 120 136 125 234 4 78 -11 146 -69 314
l-23 67 -75 29 c-41 16 -131 54 -200 84 -207 90 -291 113 -357 97z"/>
<path d="M5365 7643 c-64 -13 -105 -68 -126 -168 -16 -78 -7 -111 36 -136 73
-43 99 -105 176 -412 48 -194 65 -221 145 -233 38 -5 54 -2 102 22 116 60 124
120 52 404 -84 333 -103 384 -164 445 -42 43 -62 54 -106 64 -76 17 -92 19
-115 14z"/>
<path d="M3915 7620 c-54 -12 -92 -39 -124 -87 -33 -52 -66 -93 -94 -121 -9
-9 -34 -33 -55 -53 -20 -20 -65 -51 -99 -70 l-61 -33 -27 32 c-42 50 -86 72
-147 73 -67 2 -110 -19 -143 -69 -27 -41 -50 -134 -40 -160 3 -9 8 -48 11 -85
5 -77 21 -115 60 -146 46 -36 100 -28 238 33 66 30 149 62 184 72 34 9 65 21
68 25 12 20 24 7 24 -27 0 -77 55 -141 130 -151 53 -7 82 1 115 34 41 41 62
98 69 186 6 86 35 209 67 290 29 73 23 146 -17 188 -48 51 -113 79 -159 69z"/>
<path d="M3175 6673 c-11 -2 -30 -6 -42 -9 -29 -6 -90 -59 -108 -93 -7 -14
-16 -47 -20 -73 l-7 -46 119 -124 c76 -79 138 -155 174 -213 l57 -90 6 -160
c11 -269 25 -320 97 -358 27 -14 50 -17 109 -14 121 6 164 44 162 142 -2 70
-30 222 -60 315 -16 53 -26 108 -27 148 l0 63 60 25 c49 21 75 25 145 24 46
-1 86 -2 87 -4 6 -6 42 -155 58 -241 9 -49 20 -158 24 -242 7 -169 15 -191 82
-226 73 -39 214 0 246 69 15 31 16 50 5 202 -17 231 -88 605 -126 662 -50 76
-193 136 -354 148 -86 7 -99 5 -190 -23 -53 -17 -127 -47 -164 -67 -37 -19
-69 -32 -70 -27 -2 4 -39 45 -83 91 -79 82 -135 129 -152 127 -4 -1 -17 -3
-28 -6z"/>
<path d="M4625 6546 c-85 -38 -123 -158 -80 -250 28 -59 61 -70 295 -105 161
-24 210 -28 401 -37 172 -7 201 1 239 68 19 34 22 50 17 103 -8 82 -33 142
-66 160 -20 10 -69 14 -173 14 -138 1 -228 10 -433 45 -110 19 -161 19 -200 2z"/>
<path d="M7480 6523 c-75 -10 -242 -15 -580 -18 -261 -2 -536 -4 -611 -5 -145
-2 -236 6 -257 22 -16 14 -103 3 -142 -17 -47 -24 -74 -92 -74 -185 0 -126 32
-169 123 -172 66 -1 923 12 1126 17 184 5 258 10 508 34 102 10 132 29 147 95
11 51 -4 149 -30 190 -19 31 -65 58 -94 55 -6 -1 -58 -8 -116 -16z"/>
<path d="M4665 6021 c-24 -11 -46 -29 -53 -46 -32 -71 -44 -383 -16 -423 32
-47 103 -66 191 -52 47 8 64 16 91 45 36 39 36 36 23 267 -9 156 -18 178 -84
209 -53 23 -101 24 -152 0z"/>
<path d="M5180 5991 c-56 -30 -75 -72 -74 -166 2 -99 39 -326 61 -372 19 -41
74 -72 141 -80 26 -3 110 0 187 6 178 14 279 15 540 6 255 -8 635 14 685 40
72 37 81 92 55 312 -16 139 -30 173 -85 209 -35 24 -47 26 -113 22 -127 -6
-173 -56 -178 -196 l-3 -72 -37 0 c-20 0 -122 7 -225 15 -346 27 -466 26 -646
-4 -54 -9 -54 -10 -57 111 -2 87 -22 134 -70 165 -44 30 -131 31 -181 4z"/>
<path d="M7073 5961 c-94 -24 -116 -76 -112 -259 5 -151 13 -171 92 -210 62
-32 168 -38 355 -23 81 7 190 14 242 14 111 2 142 16 167 75 13 32 13 44 -2
121 -35 177 -38 178 -384 135 -107 -13 -146 -15 -149 -6 -14 42 -61 119 -82
134 -31 22 -83 30 -127 19z"/>
<path d="M3235 5308 c-42 -15 -73 -45 -85 -84 -16 -48 4 -311 27 -359 19 -41
72 -79 134 -96 67 -18 623 -4 804 21 116 15 183 18 390 15 138 -3 286 -8 330
-11 44 -4 217 -8 385 -8 304 -1 305 -1 346 23 39 22 54 40 68 84 10 32 -34
198 -59 223 -29 29 -95 38 -165 22 -64 -14 -295 -13 -484 2 -264 22 -786 8
-1141 -29 -55 -6 -144 -11 -197 -11 l-97 0 -12 59 c-14 72 -38 115 -76 134
-38 20 -132 29 -168 15z"/>
<path d="M7541 5220 c-45 -11 -90 -58 -101 -105 -5 -21 -6 -94 -3 -164 7 -187
38 -231 168 -234 95 -2 160 61 157 152 -4 137 -20 271 -35 294 -30 46 -119 74
-186 57z"/>
<path d="M6236 5160 c-46 -14 -73 -48 -91 -114 -16 -58 -16 -67 -1 -127 23
-88 62 -148 116 -179 42 -24 54 -25 205 -26 88 -1 277 -5 420 -9 252 -8 261
-7 301 13 61 31 94 80 94 139 -1 62 -30 128 -67 146 -37 19 -128 38 -147 31
-8 -3 -21 -2 -28 2 -14 9 -119 12 -399 14 l-177 1 -27 39 c-45 65 -123 92
-199 70z"/>
<path d="M5811 5026 c-35 -20 -50 -54 -51 -117 0 -43 5 -63 22 -84 27 -34 75
-55 128 -55 53 0 108 48 117 103 8 53 -21 123 -61 148 -36 22 -119 25 -155 5z"/>
<path d="M4152 4529 c-47 -24 -82 -69 -107 -138 -31 -90 -31 -90 171 -218 77
-49 161 -105 186 -124 l44 -34 -46 -65 c-45 -63 -50 -67 -151 -110 -146 -63
-152 -67 -151 -118 1 -59 27 -131 61 -173 26 -31 34 -34 82 -34 47 0 66 7 149
56 52 31 144 82 204 114 114 60 187 118 212 168 28 53 34 130 17 199 -9 35
-21 74 -28 88 -31 60 -150 156 -335 271 -252 157 -239 152 -308 118z"/>
<path d="M5047 4311 c-34 -30 -67 -101 -67 -144 0 -10 8 -31 19 -45 26 -38
101 -273 101 -319 0 -51 37 -123 77 -149 104 -69 218 -10 254 129 11 46 3 134
-21 218 -12 43 -94 181 -152 257 -44 57 -65 69 -133 79 -37 5 -46 1 -78 -26z"/>
<path d="M5552 4309 c-34 -10 -61 -46 -97 -127 -16 -38 -17 -46 -5 -65 8 -12
33 -56 57 -97 71 -124 110 -151 199 -137 45 8 120 51 139 81 22 34 39 125 31
167 -8 42 -45 84 -83 94 -15 3 -43 20 -62 37 -61 54 -110 67 -179 47z"/>
<path d="M3370 4304 c-250 -44 -405 -206 -396 -415 5 -124 62 -199 168 -221
48 -10 59 -9 93 8 68 34 97 96 84 182 -8 56 8 76 83 102 62 22 84 18 139 -20
24 -17 27 -25 22 -54 -7 -47 22 -129 62 -171 28 -31 38 -35 81 -35 88 1 166
54 201 137 18 44 16 134 -4 206 -29 104 -140 204 -280 252 -66 23 -201 38
-253 29z"/>
<path d="M6348 4299 c-142 -22 -215 -66 -241 -143 -17 -51 -21 -301 -5 -354
22 -75 147 -94 231 -36 45 32 70 69 96 142 l17 47 59 7 c70 9 189 2 327 -18
201 -29 260 -15 306 76 42 85 20 176 -52 217 -97 53 -552 92 -738 62z"/>
<path d="M7517 4296 c-90 -24 -122 -83 -115 -207 6 -117 66 -165 194 -157 112
7 160 64 158 189 -2 160 -79 217 -237 175z"/>
<path d="M7435 3501 c-151 -19 -236 -61 -353 -174 -86 -82 -104 -198 -53 -344
68 -197 163 -280 466 -410 185 -79 243 -89 321 -54 48 22 76 71 81 146 7 89
-50 154 -150 171 -54 9 -220 78 -279 115 -50 32 -118 104 -118 124 0 15 38 49
77 69 25 13 60 16 158 15 149 -1 188 13 219 76 17 34 18 46 8 103 -7 46 -18
72 -37 92 -51 54 -211 87 -340 71z"/>
<path d="M6105 3426 c-66 -29 -138 -159 -120 -216 4 -12 41 -48 83 -82 43 -33
101 -81 130 -106 60 -51 137 -153 147 -194 6 -23 1 -31 -37 -58 -45 -33 -261
-144 -335 -172 -59 -23 -67 -47 -43 -144 15 -66 24 -84 55 -112 35 -32 41 -34
94 -30 45 4 69 13 126 49 125 81 308 176 380 197 77 23 144 72 172 126 20 37
19 132 -1 198 -28 96 -148 235 -322 374 -147 119 -174 139 -221 163 -48 24
-66 25 -108 7z"/>
<path d="M5345 3318 c-82 -29 -111 -79 -100 -175 8 -77 27 -112 88 -165 29
-25 70 -70 91 -101 32 -46 36 -58 27 -76 -14 -26 -79 -63 -149 -86 -43 -14
-56 -24 -69 -50 -33 -69 14 -216 82 -261 37 -24 80 -12 242 71 166 85 226 132
249 191 28 73 6 197 -58 324 -52 102 -302 342 -355 339 -10 0 -31 -5 -48 -11z"/>
<path d="M4355 3300 c-38 -4 -88 -11 -110 -14 -387 -57 -723 -59 -981 -5 -121
25 -161 22 -215 -14 -19 -12 -42 -38 -51 -57 -20 -39 -24 -122 -8 -179 5 -20
20 -85 34 -146 39 -168 110 -409 129 -439 24 -36 72 -64 123 -72 79 -12 181
56 205 137 12 38 10 44 -39 147 -31 66 -57 137 -66 186 -9 44 -15 80 -13 82 1
2 45 -3 97 -11 219 -34 430 -27 788 25 252 37 407 18 477 -60 l20 -22 -35 -29
c-21 -18 -71 -41 -124 -58 l-89 -27 -51 34 c-47 31 -56 34 -113 30 -73 -5 -98
-23 -114 -82 -16 -58 -14 -148 4 -182 39 -75 124 -116 236 -116 96 1 187 20
328 70 180 64 245 108 292 204 37 74 40 141 12 236 -60 196 -217 309 -495 357
-94 16 -130 17 -241 5z"/>
</g>
</svg>
